<svg xmlns="http://www.w3.org/2000/svg" width="366" height="312" fill="none" viewBox="0 0 366 312">
  <g filter="url(#a)">
    <path fill="#7D95BE" fill-opacity=".4" d="M265.516 180.973c0 25.934 1.824 26.912-87.588 31.027-51.901 0-77.552-9.866-77.552-35.8 0-25.935 38.776-37.195 77.552-75.32 29.196 0 87.588 54.158 87.588 80.093Z"/>
  </g>
  <g filter="url(#b)">
    <path fill="#D9D9D9" d="M135.229 159.023h110.823v40.473H135.229z"/>
    <path stroke="#7D95BE" stroke-width="2" d="M136.229 160.023h108.823v38.473H136.229z"/>
  </g>
  <g filter="url(#c)">
    <path fill="#D9D9D9" d="M175.056 169.563c0 16.532-16.372 29.933-36.569 29.933-20.196 0-40.487-3.533-40.487-20.065s20.291-39.801 40.487-39.801c20.197 0 36.569 13.401 36.569 29.933Z"/>
    <path stroke="#7D95BE" stroke-width="2" d="M138.487 140.63c19.841 0 35.57 13.132 35.57 28.933-.001 15.802-15.729 28.933-35.57 28.933-10.071 0-20.038-.886-27.455-3.766-3.698-1.436-6.702-3.345-8.778-5.831-2.061-2.468-3.254-5.559-3.254-9.468 0-7.911 4.892-17.625 12.39-25.406 7.488-7.771 17.367-13.395 27.097-13.395Z"/>
  </g>
  <g filter="url(#d)">
    <ellipse cx="180.684" cy="144.689" fill="#D9D9D9" rx="41.991" ry="44.689"/>
    <path stroke="#7D95BE" stroke-width="2" d="M180.684 101c22.581 0 40.991 19.5 40.991 43.688 0 24.189-18.41 43.69-40.991 43.69s-40.991-19.501-40.991-43.69c0-24.188 18.41-43.688 40.991-43.688Z"/>
  </g>
  <g filter="url(#e)">
    <ellipse cx="220.944" cy="148.483" fill="#D9D9D9" rx="13.853" ry="13.069"/>
    <path stroke="#7D95BE" stroke-width="2" d="M220.944 136.414c7.154 0 12.853 5.457 12.853 12.069 0 6.612-5.699 12.069-12.853 12.069s-12.853-5.457-12.853-12.069c0-6.611 5.699-12.069 12.853-12.069Z"/>
  </g>
  <g filter="url(#f)">
    <path fill="#D9D9D9" d="M266.832 173.579c0 14.313-11.232 25.917-25.086 25.917-13.855 0-38.118-33.866-38.118-48.18s24.263-3.655 38.118-3.655c13.854 0 25.086 11.604 25.086 25.918Z"/>
    <path stroke="#7D95BE" stroke-width="2" d="M208.013 145.633c2.24-.912 5.484-.955 9.367-.519 3.853.433 8.13 1.308 12.384 2.089 4.216.775 8.415 1.458 11.981 1.458 13.272 0 24.086 11.125 24.086 24.917 0 13.793-10.814 24.918-24.086 24.918-3.106 0-6.991-1.928-11.174-5.294-4.142-3.334-8.419-7.949-12.284-13.033-3.863-5.081-7.292-10.6-9.75-15.719-2.473-5.149-3.909-9.784-3.909-13.134 0-1.648.349-2.848.912-3.727.56-.874 1.382-1.512 2.473-1.956Z"/>
  </g>
  <path fill="#D9D9D9" d="M251.68 185.584c0 13.039-30.533 11.394-69.264 11.394-38.732 0-70.13-10.571-70.13-23.61s31.398-42.592 70.13-42.592c38.731 0 69.264 41.769 69.264 54.808Z"/>
  <g filter="url(#g)">
    <path stroke="#7D95BE" stroke-width="2" d="m146.432 126.139-6.483 10.382-5.053 15.993"/>
  </g>
  <g filter="url(#h)">
    <ellipse cx="194.255" cy="143.704" fill="#7D95BE" rx="20.528" ry="16.738"/>
  </g>
  <g filter="url(#i)">
    <path fill="#D9D9D9" d="M184.68 184.003h76.059v25.721H184.68z"/>
    <path stroke="#7D95BE" stroke-width="2" d="M185.68 185.003h74.059v23.721H185.68z"/>
  </g>
  <g filter="url(#j)">
    <path fill="#D9D9D9" d="M212.014 190.702c0 10.506-11.237 19.023-25.098 19.023-13.861 0-27.787-2.246-27.787-12.752s13.926-25.294 27.787-25.294c13.861 0 25.098 8.517 25.098 19.023Z"/>
    <path stroke="#7D95BE" stroke-width="2" d="M186.916 172.679c6.732 0 12.79 2.069 17.143 5.368 4.351 3.298 6.955 7.782 6.955 12.654s-2.604 9.356-6.955 12.654c-4.353 3.299-10.41 5.37-17.143 5.37-6.907 0-13.709-.564-18.753-2.377-2.515-.904-4.525-2.096-5.899-3.62-1.355-1.503-2.135-3.374-2.135-5.755 0-4.869 3.272-10.949 8.389-15.866 5.096-4.897 11.808-8.428 18.398-8.428Z"/>
  </g>
  <g filter="url(#k)">
    <ellipse cx="215.876" cy="174.894" fill="#D9D9D9" rx="28.819" ry="28.4"/>
    <path stroke="#7D95BE" stroke-width="2" d="M215.876 147.494c15.378 0 27.819 12.281 27.819 27.4 0 15.119-12.441 27.4-27.819 27.4-15.378 0-27.819-12.281-27.819-27.4 0-15.119 12.441-27.4 27.819-27.4Z"/>
  </g>
  <g filter="url(#l)">
    <ellipse cx="243.507" cy="177.305" fill="#D9D9D9" rx="9.507" ry="8.306"/>
    <path stroke="#7D95BE" stroke-width="2" d="M243.507 170c4.83 0 8.507 3.393 8.507 7.305s-3.677 7.306-8.507 7.306c-4.829 0-8.507-3.394-8.507-7.306s3.678-7.305 8.507-7.305Z"/>
  </g>
  <g filter="url(#m)">
    <path fill="#D9D9D9" d="M275 193.254c0 9.096-7.708 16.471-17.217 16.471-9.508 0-26.16-21.523-26.16-30.619 0-9.097 16.652-2.323 26.16-2.323 9.509 0 17.217 7.374 17.217 16.471Z"/>
    <path stroke="#7D95BE" stroke-width="2" d="M234.725 175.841c1.474-.556 3.647-.59 6.309-.313 2.633.274 5.555.826 8.482 1.324 2.893.492 5.794.931 8.267.931 8.998 0 16.216 6.968 16.217 15.471 0 8.503-7.219 15.47-16.217 15.47-2.045 0-4.65-1.181-7.501-3.306-2.817-2.099-5.733-5.011-8.372-8.226-2.638-3.213-4.976-6.698-6.649-9.925-1.69-3.259-2.638-6.135-2.638-8.162 0-.982.223-1.66.556-2.142.333-.482.836-.855 1.546-1.122Z"/>
  </g>
  <path fill="#D9D9D9" d="M264.601 200.883c0 8.287-20.955 7.241-47.537 7.241s-48.131-6.717-48.131-15.004c0-8.286 21.549-27.068 48.131-27.068s47.537 26.545 47.537 34.831Z"/>
  <g filter="url(#n)">
    <path stroke="#7D95BE" stroke-width="2" d="m192.369 163.105-4.45 6.598-3.468 10.164"/>
  </g>
  <defs>
    <filter id="a" width="365.142" height="311.12" x=".376" y=".88" color-interpolation-filters="sRGB" filterUnits="userSpaceOnUse">
      <feFlood flood-opacity="0" result="BackgroundImageFix"/>
      <feBlend in="SourceGraphic" in2="BackgroundImageFix" result="shape"/>
      <feGaussianBlur result="effect1_foregroundBlur_898_1273" stdDeviation="50"/>
    </filter>
    <filter id="b" width="118.823" height="48.473" x="131.229" y="155.023" color-interpolation-filters="sRGB" filterUnits="userSpaceOnUse">
      <feFlood flood-opacity="0" result="BackgroundImageFix"/>
      <feBlend in="SourceGraphic" in2="BackgroundImageFix" result="shape"/>
      <feTurbulence baseFrequency="0.25 0.25" numOctaves="3" seed="3483" type="fractalNoise"/>
      <feDisplacementMap width="100%" height="100%" in="shape" result="displacedImage" scale="8" xChannelSelector="R" yChannelSelector="G"/>
      <feMerge result="effect1_texture_898_1273">
        <feMergeNode in="displacedImage"/>
      </feMerge>
    </filter>
    <filter id="c" width="85.057" height="67.866" x="94" y="135.63" color-interpolation-filters="sRGB" filterUnits="userSpaceOnUse">
      <feFlood flood-opacity="0" result="BackgroundImageFix"/>
      <feBlend in="SourceGraphic" in2="BackgroundImageFix" result="shape"/>
      <feTurbulence baseFrequency="0.25 0.25" numOctaves="3" seed="2844" type="fractalNoise"/>
      <feDisplacementMap width="100%" height="100%" in="shape" result="displacedImage" scale="8" xChannelSelector="R" yChannelSelector="G"/>
      <feMerge result="effect1_texture_898_1273">
        <feMergeNode in="displacedImage"/>
      </feMerge>
    </filter>
    <filter id="d" width="91.983" height="97.378" x="134.693" y="96" color-interpolation-filters="sRGB" filterUnits="userSpaceOnUse">
      <feFlood flood-opacity="0" result="BackgroundImageFix"/>
      <feBlend in="SourceGraphic" in2="BackgroundImageFix" result="shape"/>
      <feTurbulence baseFrequency="0.25 0.25" numOctaves="3" seed="7408" type="fractalNoise"/>
      <feDisplacementMap width="100%" height="100%" in="shape" result="displacedImage" scale="8" xChannelSelector="R" yChannelSelector="G"/>
      <feMerge result="effect1_texture_898_1273">
        <feMergeNode in="displacedImage"/>
      </feMerge>
    </filter>
    <filter id="e" width="35.706" height="34.139" x="203.091" y="131.414" color-interpolation-filters="sRGB" filterUnits="userSpaceOnUse">
      <feFlood flood-opacity="0" result="BackgroundImageFix"/>
      <feBlend in="SourceGraphic" in2="BackgroundImageFix" result="shape"/>
      <feTurbulence baseFrequency="0.25 0.25" numOctaves="3" seed="6179" type="fractalNoise"/>
      <feDisplacementMap width="100%" height="100%" in="shape" result="displacedImage" scale="8" xChannelSelector="R" yChannelSelector="G"/>
      <feMerge result="effect1_texture_898_1273">
        <feMergeNode in="displacedImage"/>
      </feMerge>
    </filter>
    <filter id="f" width="71.204" height="63.65" x="199.628" y="139.846" color-interpolation-filters="sRGB" filterUnits="userSpaceOnUse">
      <feFlood flood-opacity="0" result="BackgroundImageFix"/>
      <feBlend in="SourceGraphic" in2="BackgroundImageFix" result="shape"/>
      <feTurbulence baseFrequency="0.25 0.25" numOctaves="3" seed="7045" type="fractalNoise"/>
      <feDisplacementMap width="100%" height="100%" in="shape" result="displacedImage" scale="8" xChannelSelector="R" yChannelSelector="G"/>
      <feMerge result="effect1_texture_898_1273">
        <feMergeNode in="displacedImage"/>
      </feMerge>
    </filter>
    <filter id="g" width="21.34" height="35.212" x="129.942" y="121.607" color-interpolation-filters="sRGB" filterUnits="userSpaceOnUse">
      <feFlood flood-opacity="0" result="BackgroundImageFix"/>
      <feBlend in="SourceGraphic" in2="BackgroundImageFix" result="shape"/>
      <feTurbulence baseFrequency="0.25 0.25" numOctaves="3" seed="6298" type="fractalNoise"/>
      <feDisplacementMap width="100%" height="100%" in="shape" result="displacedImage" scale="8" xChannelSelector="R" yChannelSelector="G"/>
      <feMerge result="effect1_texture_898_1273">
        <feMergeNode in="displacedImage"/>
      </feMerge>
    </filter>
    <filter id="h" width="141.057" height="133.475" x="123.727" y="76.966" color-interpolation-filters="sRGB" filterUnits="userSpaceOnUse">
      <feFlood flood-opacity="0" result="BackgroundImageFix"/>
      <feBlend in="SourceGraphic" in2="BackgroundImageFix" result="shape"/>
      <feGaussianBlur result="effect1_foregroundBlur_898_1273" stdDeviation="25"/>
    </filter>
    <filter id="i" width="84.059" height="33.721" x="180.68" y="180.003" color-interpolation-filters="sRGB" filterUnits="userSpaceOnUse">
      <feFlood flood-opacity="0" result="BackgroundImageFix"/>
      <feBlend in="SourceGraphic" in2="BackgroundImageFix" result="shape"/>
      <feTurbulence baseFrequency="0.25 0.25" numOctaves="3" seed="3483" type="fractalNoise"/>
      <feDisplacementMap width="100%" height="100%" in="shape" result="displacedImage" scale="8" xChannelSelector="R" yChannelSelector="G"/>
      <feMerge result="effect1_texture_898_1273">
        <feMergeNode in="displacedImage"/>
      </feMerge>
    </filter>
    <filter id="j" width="60.885" height="46.046" x="155.129" y="167.679" color-interpolation-filters="sRGB" filterUnits="userSpaceOnUse">
      <feFlood flood-opacity="0" result="BackgroundImageFix"/>
      <feBlend in="SourceGraphic" in2="BackgroundImageFix" result="shape"/>
      <feTurbulence baseFrequency="0.25 0.25" numOctaves="3" seed="2844" type="fractalNoise"/>
      <feDisplacementMap width="100%" height="100%" in="shape" result="displacedImage" scale="8" xChannelSelector="R" yChannelSelector="G"/>
      <feMerge result="effect1_texture_898_1273">
        <feMergeNode in="displacedImage"/>
      </feMerge>
    </filter>
    <filter id="k" width="65.639" height="64.801" x="183.057" y="142.494" color-interpolation-filters="sRGB" filterUnits="userSpaceOnUse">
      <feFlood flood-opacity="0" result="BackgroundImageFix"/>
      <feBlend in="SourceGraphic" in2="BackgroundImageFix" result="shape"/>
      <feTurbulence baseFrequency="0.25 0.25" numOctaves="3" seed="7408" type="fractalNoise"/>
      <feDisplacementMap width="100%" height="100%" in="shape" result="displacedImage" scale="8" xChannelSelector="R" yChannelSelector="G"/>
      <feMerge result="effect1_texture_898_1273">
        <feMergeNode in="displacedImage"/>
      </feMerge>
    </filter>
    <filter id="l" width="27.015" height="24.612" x="230" y="165" color-interpolation-filters="sRGB" filterUnits="userSpaceOnUse">
      <feFlood flood-opacity="0" result="BackgroundImageFix"/>
      <feBlend in="SourceGraphic" in2="BackgroundImageFix" result="shape"/>
      <feTurbulence baseFrequency="0.25 0.25" numOctaves="3" seed="6179" type="fractalNoise"/>
      <feDisplacementMap width="100%" height="100%" in="shape" result="displacedImage" scale="8" xChannelSelector="R" yChannelSelector="G"/>
      <feMerge result="effect1_texture_898_1273">
        <feMergeNode in="displacedImage"/>
      </feMerge>
    </filter>
    <filter id="m" width="51.377" height="43.367" x="227.623" y="170.358" color-interpolation-filters="sRGB" filterUnits="userSpaceOnUse">
      <feFlood flood-opacity="0" result="BackgroundImageFix"/>
      <feBlend in="SourceGraphic" in2="BackgroundImageFix" result="shape"/>
      <feTurbulence baseFrequency="0.25 0.25" numOctaves="3" seed="7045" type="fractalNoise"/>
      <feDisplacementMap width="100%" height="100%" in="shape" result="displacedImage" scale="8" xChannelSelector="R" yChannelSelector="G"/>
      <feMerge result="effect1_texture_898_1273">
        <feMergeNode in="displacedImage"/>
      </feMerge>
    </filter>
    <filter id="n" width="17.701" height="25.666" x="179.502" y="158.538" color-interpolation-filters="sRGB" filterUnits="userSpaceOnUse">
      <feFlood flood-opacity="0" result="BackgroundImageFix"/>
      <feBlend in="SourceGraphic" in2="BackgroundImageFix" result="shape"/>
      <feTurbulence baseFrequency="0.25 0.25" numOctaves="3" seed="6298" type="fractalNoise"/>
      <feDisplacementMap width="100%" height="100%" in="shape" result="displacedImage" scale="8" xChannelSelector="R" yChannelSelector="G"/>
      <feMerge result="effect1_texture_898_1273">
        <feMergeNode in="displacedImage"/>
      </feMerge>
    </filter>
  </defs>
</svg>
